<svg xmlns:serif="http://www.serif.com/" xmlns="http://www.w3.org/2000/svg" xmlns:xlink="http://www.w3.org/1999/xlink" id="Ebene_1" x="0px" y="0px" viewBox="0 0 698.8 286.9" style="enable-background:new 0 0 698.8 286.9;" xml:space="preserve">
<style type="text/css">
	.st0{fill-rule:evenodd;clip-rule:evenodd;fill:#FF6B6B;}
	.st1{enable-background:new    ;}
	.st2{fill:#FFFFFF;}
	.st3{fill:#FF6B6B;}
</style>
<path class="st0" d="M240.5,129.1C195.8,103.6,62.5,28.1,17.8,1.3c-3.7-2.2-7.5-2.2-11.2,0C2.8,3.5,1,7.1,1,10.7V267  c0,2.9,1.9,6.5,4.7,8c2.8,1.5,6.5,1.5,9.3,0c43.8-25.4,179.9-103.1,225.6-128.5c2.8-2.2,4.7-5.1,4.7-8.7  C245.2,134.1,243.3,130.5,240.5,129.1z M32.9,128.4c-4.1,4.1-10.9,4.1-15,0c-4.1-4.1-4.1-10.9,0-15c4.1-4.1,10.9-4.1,15,0  C37.1,117.5,37.1,124.2,32.9,128.4z M69.1,128.4c-4.1,4.1-10.9,4.1-15,0c-4.1-4.1-4.1-10.9,0-15c4.1-4.1,10.9-4.1,15,0  S73.3,124.3,69.1,128.4z M182.4,128.6c-1.9,2-4.6,3.1-7.4,3.1h-64.6v65.2c0,2.9-1.1,5.6-3.1,7.6c-1.9,2-4.6,3.1-7.4,3.1  c-2.8,0-5.4-1.1-7.4-3.1s-3.1-4.7-3.1-7.6v-65.2c0,0,0-8.5,0-21.4h85.5c2.8,0,5.4,1.1,7.4,3.1s3.2,4.7,3.2,7.6  C185.5,123.9,184.4,126.6,182.4,128.6z"></path>
<g transform="matrix(5.67742,0,0,5.67742,-2030.11,-1465.11)">
	<g class="st1">
		<path class="st2" d="M413.3,277.7h1.8l-4,10.7h-2l-4-10.7h1.9l3.2,8.9L413.3,277.7z"></path>
		<path class="st2" d="M416.4,277.7c0-0.6,0.5-1.1,1.1-1.1s1.1,0.5,1.1,1.1s-0.5,1.1-1.1,1.1C416.9,278.8,416.4,278.3,416.4,277.7z     M416.6,279.9h1.8v8.5h-1.8V279.9z"></path>
		<path class="st2" d="M424.1,279.8c1.1,0,2.3,0.5,2.9,1.3V277h1.8v11.4H427v-1.3c-0.5,0.8-1.6,1.4-2.9,1.4c-2.2,0-4-1.8-4-4.4    S421.9,279.8,424.1,279.8z M424.5,281.3c-1.3,0-2.6,1-2.6,2.8s1.3,2.9,2.6,2.9c1.3,0,2.6-1,2.6-2.9    C427,282.3,425.8,281.3,424.5,281.3z"></path>
		<path class="st2" d="M434.8,288.5c-2.4,0-4.2-1.7-4.2-4.4c0-2.7,1.7-4.4,4.2-4.4c2.4,0,4.1,1.7,4.1,4.2c0,0.3,0,0.6-0.1,0.9h-6.5    c0.1,1.4,1.1,2.2,2.4,2.2c1.1,0,1.7-0.5,2-1.2h1.9C438.2,287.3,436.8,288.5,434.8,288.5z M432.4,283.4h4.7c0-1.3-1.1-2.1-2.4-2.1    C433.5,281.2,432.5,282,432.4,283.4z"></path>
		<path class="st2" d="M444.3,288.5c-2.4,0-4.2-1.7-4.2-4.4c0-2.7,1.9-4.4,4.3-4.4s4.3,1.7,4.3,4.4    C448.7,286.8,446.7,288.5,444.3,288.5z M444.3,287c1.3,0,2.6-0.9,2.6-2.9c0-1.9-1.2-2.8-2.6-2.8c-1.3,0-2.5,0.9-2.5,2.8    S442.9,287,444.3,287z"></path>
	</g>
</g>
<g transform="matrix(5.67742,0,0,5.67742,-2040.59,-1728.23)">
	<g class="st1">
		<path class="st3" d="M406.6,316.8c2.4-2,4.9-3.9,4.9-5.8c0-0.8-0.4-1.3-1.2-1.3c-0.8,0-1.2,0.6-1.2,1.7h-2.5    c0.1-2.7,1.8-3.9,3.9-3.9c2.6,0,3.7,1.5,3.7,3.4c0,2.5-2.2,4.4-4,5.8h4.1v2.1h-7.7L406.6,316.8L406.6,316.8z"></path>
		<path class="st3" d="M415.2,308.1h8.3v2.1h-2.9v8.7H418v-8.7h-2.9v-2.1H415.2z"></path>
	</g>
</g>
<g transform="matrix(5.67742,0,0,5.67742,-2048.01,-1199.43)">
	<g class="st1">
		<path class="st2" d="M408,246.9h1.9l3.7,8.4l3.7-8.4h1.9v10.7h-1.8v-7.3l-3.3,7.3h-1.2l-3.3-7.3v7.3H408V246.9z"></path>
		<path class="st2" d="M425,248.9c1.4,0,2.4,0.7,2.9,1.4v-1.2h1.8v8.5h-1.8v-1.3c-0.5,0.7-1.6,1.4-3,1.4c-2.2,0-4-1.8-4-4.4    C421,250.7,422.8,248.9,425,248.9z M425.4,250.5c-1.3,0-2.6,1-2.6,2.8s1.3,2.9,2.6,2.9c1.3,0,2.6-1,2.6-2.9    C427.9,251.5,426.7,250.5,425.4,250.5z"></path>
		<path class="st2" d="M433.8,257.5H432V249h1.8v1.2c0.5-0.8,1.3-1.4,2.5-1.4v1.8h-0.4c-1.3,0-2.1,0.5-2.1,2.3V257.5z"></path>
		<path class="st2" d="M437.9,246.2h1.8v6.6l3.1-3.7h2.4l-3.9,4.2l3.9,4.2h-2.4l-3.1-3.6v3.6h-1.8V246.2z"></path>
		<path class="st2" d="M450.1,257.7c-2.4,0-4.2-1.7-4.2-4.4c0-2.7,1.7-4.4,4.2-4.4c2.4,0,4.1,1.7,4.1,4.2c0,0.3,0,0.6-0.1,0.9h-6.5    c0.1,1.4,1.1,2.2,2.4,2.2c1.1,0,1.7-0.5,2-1.2h1.9C453.5,256.5,452.1,257.7,450.1,257.7z M447.7,252.5h4.7c0-1.3-1.1-2.1-2.4-2.1    C448.8,250.4,447.9,251.2,447.7,252.5z"></path>
		<path class="st2" d="M456.2,250.5h-1v-1.4h1V247h1.8v2.1h2.1v1.4H458v4.7c0,0.6,0.2,0.9,1,0.9h1.1v1.5h-1.4    c-1.5,0-2.4-0.6-2.4-2.4v-4.7H456.2z"></path>
		<path class="st2" d="M461.4,246.8c0-0.6,0.5-1.1,1.1-1.1s1.1,0.5,1.1,1.1s-0.5,1.1-1.1,1.1C461.9,247.9,461.4,247.5,461.4,246.8z     M461.6,249.1h1.8v8.5h-1.8V249.1z"></path>
		<path class="st2" d="M471.7,252.8c0-1.6-0.8-2.4-2.1-2.4c-1.3,0-2.1,0.8-2.1,2.4v4.7h-1.8V249h1.8v1c0.6-0.7,1.5-1.1,2.5-1.1    c2,0,3.5,1.2,3.5,3.6v5h-1.7L471.7,252.8L471.7,252.8z"></path>
		<path class="st2" d="M479.1,248.9c1.4,0,2.4,0.6,2.9,1.4v-1.2h1.8v8.6c0,2.3-1.5,4-4.1,4c-2.3,0-3.9-1.1-4.1-3h1.7    c0.3,0.9,1.2,1.5,2.4,1.5c1.4,0,2.4-0.8,2.4-2.5v-1.4c-0.5,0.7-1.6,1.4-2.9,1.4c-2.2,0-4-1.8-4-4.4    C475.1,250.7,476.8,248.9,479.1,248.9z M479.4,250.5c-1.3,0-2.6,1-2.6,2.8s1.3,2.9,2.6,2.9c1.3,0,2.6-1,2.6-2.9    C482,251.5,480.8,250.5,479.4,250.5z"></path>
	</g>
</g>
</svg>
